<svg id="Capa_1" enable-background="new 0 0 512 512" height="512" viewBox="0 0 512 512" width="512" xmlns="http://www.w3.org/2000/svg"><g><path d="m512 132.163h-512v-79.09c0-11.495 9.318-20.813 20.813-20.813h470.374c11.495 0 20.813 9.318 20.813 20.813z" fill="#62a4fb"/><path d="m491.187 32.26h-26.016c11.495 0 20.813 9.318 20.813 20.813v79.089h26.016v-79.089c0-11.494-9.318-20.813-20.813-20.813z" fill="#5392f9"/><path d="m491.187 479.74h-470.374c-11.495 0-20.813-9.318-20.813-20.813v-326.764h512v326.764c0 11.495-9.318 20.813-20.813 20.813z" fill="#e6f7fe"/><path d="m485.984 132.163v326.764c0 11.495-9.318 20.813-20.813 20.813h26.016c11.495 0 20.813-9.318 20.813-20.813v-326.764z" fill="#d3effd"/><path d="m233.106 90.62v-16.818c0-4.552 3.69-8.241 8.241-8.241h229.111c4.552 0 8.241 3.69 8.241 8.241v16.818c0 4.552-3.69 8.241-8.241 8.241h-229.111c-4.551.001-8.241-3.689-8.241-8.241z" fill="#e6f7fe"/><circle cx="49.951" cy="82.211" fill="#df646e" r="16.65"/><circle cx="116.553" cy="82.211" fill="#ffe07d" r="16.65"/><circle cx="183.154" cy="82.211" fill="#b3e59f" r="16.65"/><g><path d="m409.408 405.613-18.763-32.498c-.569-.985-.231-2.246.754-2.815l10.573-6.105c4.121-2.379 4.121-8.327 0-10.706l-53.555-30.92c-4.121-2.379-9.272.595-9.272 5.353v61.84c0 4.758 5.151 7.732 9.272 5.353l10.574-6.105c.985-.569 2.246-.231 2.815.754l18.763 32.498c1.707 2.956 5.487 3.969 8.444 2.262l18.133-10.469c2.956-1.705 3.969-5.485 2.262-8.442z" fill="#e27d47"/></g><g><circle cx="432.217" cy="279.936" fill="#62a4fb" r="10.407"/></g><g><g><path d="m172.52 290.783c-3.898 0-7.387-2.459-8.696-6.136-.037-.104-.071-.21-.105-.315l-12.824-41.628-12.881 41.619c-.021.068-.043.135-.066.203-1.264 3.715-4.749 6.23-8.673 6.258-.021 0-.043 0-.065 0-3.898 0-7.387-2.459-8.696-6.136-.126-.356-.226-.72-.3-1.091l-12.976-65.602c-.828-4.186 1.894-8.251 6.08-9.078 4.188-.826 8.251 1.894 9.078 6.08l8.153 41.22 12.776-41.273c.638-3.121 3.163-5.598 6.42-6.089 3.778-.565 7.409 1.712 8.534 5.366l12.936 41.99 8.18-41.102c.833-4.186 4.899-6.901 9.086-6.07 4.185.833 6.902 4.901 6.069 9.086l-13.028 65.46c-.065.332-.154.659-.263.979-1.264 3.715-4.748 6.23-8.673 6.258-.022.001-.044.001-.066.001z" fill="#62a4fb"/></g></g><g><g><path d="m277.626 290.783c-3.898 0-7.387-2.459-8.696-6.136-.037-.104-.071-.21-.105-.315l-12.824-41.628-12.881 41.619c-.021.068-.043.135-.066.203-1.264 3.715-4.748 6.23-8.673 6.258-.021 0-.043 0-.065 0-3.898 0-7.387-2.459-8.696-6.136-.126-.356-.226-.72-.3-1.091l-12.976-65.602c-.828-4.186 1.894-8.251 6.08-9.078 4.188-.826 8.251 1.894 9.078 6.08l8.153 41.22 12.776-41.273c.638-3.121 3.163-5.598 6.42-6.089 3.777-.565 7.409 1.712 8.534 5.366l12.936 41.99 8.18-41.102c.832-4.186 4.901-6.901 9.086-6.07 4.185.833 6.902 4.901 6.069 9.086l-13.028 65.46c-.065.332-.154.659-.263.979-1.264 3.715-4.749 6.23-8.673 6.258-.022.001-.044.001-.066.001z" fill="#62a4fb"/></g></g><g><g><path d="m382.731 290.783c-3.9 0-7.39-2.461-8.696-6.141-.037-.103-.071-.206-.104-.31l-12.824-41.629-12.882 41.62c-.021.068-.043.135-.066.203-1.264 3.717-4.751 6.231-8.676 6.258-.02 0-.041 0-.062 0-3.9 0-7.39-2.461-8.696-6.141-.126-.354-.226-.717-.299-1.086l-12.977-65.602c-.828-4.186 1.894-8.251 6.08-9.079 4.188-.826 8.25 1.895 9.078 6.08l8.154 41.219 12.775-41.271c.638-3.121 3.163-5.598 6.42-6.089 3.776-.565 7.409 1.712 8.534 5.366l12.936 41.989 8.18-41.1c.832-4.186 4.898-6.901 9.086-6.07 4.185.833 6.902 4.901 6.069 9.086l-13.028 65.46c-.065.332-.154.659-.263.979-1.264 3.717-4.75 6.231-8.676 6.258-.02 0-.041 0-.063 0z" fill="#62a4fb"/></g></g></g></svg>